<svg xmlns="http://www.w3.org/2000/svg" xmlns:xlink="http://www.w3.org/1999/xlink" width="1080" zoomAndPan="magnify" viewBox="0 0 810 540.000001" height="720" preserveAspectRatio="xMidYMid meet" version="1.0"><defs><clipPath id="a82944f25a"><path d="M 0.75 389 L 809.25 389 L 809.25 539 L 0.75 539 Z M 0.75 389 " clip-rule="nonzero"/></clipPath><clipPath id="c0c25ff06f"><path d="M 0.75 417 L 809.25 417 L 809.25 539 L 0.75 539 Z M 0.75 417 " clip-rule="nonzero"/></clipPath></defs><g clip-path="url(#a82944f25a)"><path fill="#feda5e" d="M 1619.492188 1260.015625 C 1504.359375 1297.347656 1410.445312 1359.824219 1289.8125 1320.136719 C 1193.542969 1288.703125 1151.105469 1254.910156 1044.617188 1285.164062 C 952.277344 1311.492188 919.664062 1354.324219 815.140625 1327.210938 C 756.199219 1311.886719 702.367188 1260.015625 637.53125 1260.015625 C 555.015625 1260.015625 495.289062 1327.601562 415.128906 1333.890625 C 323.179688 1340.964844 268.167969 1278.484375 183.6875 1265.125 C 89.773438 1249.800781 22.1875 1323.671875 -67.011719 1330.746094 C -164.066406 1338.605469 -248.550781 1291.058594 -344.035156 1260.015625 C -343.640625 970.027344 -343.640625 679.644531 -343.640625 389.652344 C -248.15625 420.695312 -163.675781 467.847656 -66.617188 460.382812 C 22.1875 453.308594 90.164062 379.832031 184.078125 394.761719 C 268.5625 408.515625 323.570312 470.992188 415.519531 463.527344 C 495.679688 457.238281 555.40625 389.652344 637.925781 389.652344 C 702.761719 389.652344 756.199219 441.128906 815.535156 456.847656 C 919.664062 484.351562 952.671875 441.523438 1045.011719 414.800781 C 1151.496094 384.546875 1193.933594 417.945312 1290.207031 449.773438 C 1410.839844 489.460938 1504.359375 426.984375 1619.882812 389.652344 C 1619.492188 679.644531 1619.492188 970.027344 1619.492188 1260.015625 Z M 1619.492188 1260.015625 " fill-opacity="1" fill-rule="nonzero"/></g><g clip-path="url(#c0c25ff06f)"><path fill="#4085d6" d="M 1484.113281 1195.492188 C 1381.167969 1228.871094 1297.199219 1284.730469 1189.339844 1249.246094 C 1103.261719 1221.140625 1065.316406 1190.925781 970.101562 1217.976562 C 887.539062 1241.519531 858.375 1279.8125 764.921875 1255.570312 C 712.21875 1241.867188 664.085938 1195.492188 606.113281 1195.492188 C 532.332031 1195.492188 478.929688 1255.921875 407.257812 1261.542969 C 325.042969 1267.867188 275.855469 1212.003906 200.316406 1200.058594 C 116.347656 1186.359375 55.917969 1252.410156 -23.835938 1258.734375 C -110.617188 1265.761719 -186.15625 1223.246094 -271.53125 1195.492188 C -271.179688 936.203125 -271.179688 676.5625 -271.179688 417.277344 C -185.804688 445.03125 -110.265625 487.191406 -23.484375 480.515625 C 55.917969 474.191406 116.699219 408.492188 200.667969 421.84375 C 276.207031 434.140625 325.394531 490.003906 407.609375 483.328125 C 479.28125 477.707031 532.683594 417.277344 606.464844 417.277344 C 664.4375 417.277344 712.21875 463.300781 765.273438 477.355469 C 858.375 501.949219 887.890625 463.652344 970.453125 439.761719 C 1065.667969 412.707031 1103.613281 442.570312 1189.691406 471.03125 C 1297.550781 506.515625 1381.167969 450.652344 1484.464844 417.277344 C 1484.113281 676.5625 1484.113281 936.203125 1484.113281 1195.492188 Z M 1484.113281 1195.492188 " fill-opacity="1" fill-rule="nonzero"/></g></svg>